<svg id="Layer_1" xmlns="http://www.w3.org/2000/svg" viewBox="0 0 331.7 69"><style>.st0{fill:#1e1e21}.st1{fill:#ec2127}.st2{fill:#ed1c24}</style><path class="st0" d="M26.4 37.1c0-5.3 4.3-8.2 9.9-8.2 5.2 0 8.6 1.9 10.3 3.4L44 37.2c-1.6-1.3-4.4-2.6-7.3-2.6-2.1 0-3.4 1.1-3.4 2.3 0 4.5 14.6 2 14.6 11.6 0 5.3-4.3 8.6-10.9 8.6-5 0-10-2.7-11.3-4.6l3.4-4.5c1.6 1.7 5.7 3.4 8.4 3.4 2 0 3.5-.8 3.5-2.5 0-4.3-14.6-1.9-14.6-11.8zm43.5 19.5c-4 9.7-6.5 12-10.4 12-2.5 0-4.3-1-5.8-2.1l2.2-5.2c.7.4 1.7 1 2.8 1 1.7 0 3-1.4 4.1-4.2l.6-1.4L51 29.6h8.3l6.3 14.8c.5 1.3.9 2.6 1.3 3.9.2-1.3.5-2.6 1-4l4.9-14.7h7.9l-10.8 27zm15.4-27h6.9v2.7c1.6-1.7 4.5-3.2 7.7-3.2 6.6 0 11.1 3.2 11.1 11.6v15.8h-6.9V41.9c0-4.3-2.2-6.4-6.1-6.4-2.3 0-4.3 1-5.9 2.6v18.4h-6.9V29.6zm56.5 24.3c-2.7 2.3-6.5 3.4-10.3 3.4-8.7 0-14.5-5.6-14.5-14.2 0-7.9 5.4-14.2 14.3-14.2 7 0 12.8 5 12.8 12.5 0 1.7-.1 2.7-.4 3.7h-19.5c.6 4.1 3.8 6.3 8.1 6.3 3.3 0 6.1-1.2 7.6-2.5l1.9 5zm-17.9-13.4h13.3c.1-3.3-2.2-5.9-6.2-5.9-4.2.1-6.4 2.4-7.1 5.9zm26.3-10.9h6.9v2.6c1.3-1.7 2.9-3.1 6.2-3.1 2.2 0 3.3.4 4.2 1l-2.5 6.5c-1.3-.8-2-1-3.5-1-2.4 0-3.7 1.3-4.4 2.9v18.1h-6.9v-27zm27.1 22.3c-.3-.5-.5-1.3-.5-1.9 0-.7.2-1.4.6-1.9-4.1-1.6-6.4-5.1-6.4-9.1 0-5.4 4.4-10.1 11.5-10.1 2.7 0 5 .7 6.9 1.9l8.2-1.8.2 5.5-4.5 1c.4 1.1.7 2.3.7 3.5 0 5.4-4.5 10-11.5 10h-.5c-.1.4-.1.7-.1 1 0 .5.1 1 .4 1.4h.3c7.9 0 14 2.8 14 8.8 0 6.1-6.2 8.8-14 8.8-7.9 0-14-2.6-14-8.8-.1-4.5 3.5-7.2 8.7-8.3zm5.3 11.6c4.7 0 7.6-1.1 7.6-3.3 0-2-2.6-3.3-7.6-3.3-4.9 0-7.6 1.3-7.6 3.3-.1 2.1 2.9 3.3 7.6 3.3zm-.1-20.1c2.9 0 5-1.7 5-4.4 0-2.5-1.8-4.6-5-4.6-3.1 0-5 2.1-5 4.6 0 2.6 1.9 4.4 5 4.4zM218 56.6c-4 9.7-6.5 12-10.4 12-2.5 0-4.3-1-5.8-2.1l2.2-5.2c.7.4 1.7 1 2.8 1 1.7 0 3-1.4 4.1-4.2l.6-1.4-12.5-27h8.3l6.3 14.8c.5 1.3.9 2.6 1.3 3.9.2-1.3.5-2.6 1-4l4.9-14.7h7.9L218 56.6z"/><path class="st1" d="M264 56.7h-6.2l-5.8-15c-.4-1-.6-2.2-.9-3.2-.2 1.2-.5 2.2-1 3.3l-5.7 14.9h-5.9l-8.8-27.1h7.4l4.3 14.7c.4 1.3.5 2.3.8 3.6.3-1.1.5-2.1 1-3.6l5-14.7h6.1l5.2 14.6c.4 1.2.7 2.5 1 3.7.2-1.3.5-2.6.8-3.9l4-14.5h7L264 56.7zm13.6-25.2c2.3-1.4 6-2.6 9.5-2.6 8 0 10.8 4.1 10.8 11.2v16.4h-6v-3.1c-1.4 2-4.3 3.5-8 3.5-4.9 0-8.5-3.1-8.5-8.3 0-5.9 4.4-8.8 9.8-8.8 2.4 0 4.8.8 6.1 1.7.2-4.5-1-7-5-7-3.1 0-5.1 1-7.1 1.9l-1.6-4.9zm13.8 17.1v-2.8c-1.2-.9-2.8-1.3-4.7-1.3-2.3 0-4.3 1.1-4.3 3.4 0 2 1.7 3.2 3.8 3.2 2.9 0 4.4-1.3 5.2-2.5zm29.6 8c-4 9.7-6.5 12-10.4 12-2.5 0-4.3-1-5.8-2.1l2.2-5.2c.7.4 1.7 1 2.8 1 1.7 0 3-1.4 4.1-4.2l.6-1.4-12.5-27h8.3l6.3 14.8c.5 1.3.9 2.6 1.3 3.9.2-1.3.5-2.6 1-4l4.9-14.7h7.9L321 56.6z"/><path class="st2" d="M3.9 5.5C1.7 5.5 0 7.3 0 9.5c0 2.1 1.7 3.9 3.9 3.9s3.9-1.8 3.9-3.9c0-2.2-1.7-4-3.9-4zm0 10.1c-2.1 0-3.9 1.7-3.9 3.9s1.7 4 3.9 4 3.9-1.8 3.9-4-1.7-3.9-3.9-3.9zm17.6-2.2c2.2 0 4-1.8 4-3.9 0-2.2-1.8-4-4-4-2.1 0-3.8 1.8-3.8 4 0 2.1 1.7 3.9 3.8 3.9zm-8.8 7.8c-2 0-3.9 1.8-3.9 4.1 0 2 1.9 3.9 3.9 3.9 2.1 0 4-1.9 4-3.9 0-2.3-1.9-4.1-4-4.1zM12.8 0c-2 0-3.9 1.8-3.9 3.9 0 2.2 1.8 3.9 3.9 3.9 2.3 0 4-1.7 4-3.9 0-2.1-1.7-3.9-4-3.9zm8.7 15.6c-2.1 0-3.8 1.7-3.8 3.9s1.7 4 3.8 4c2.2 0 4-1.8 4-4s-1.8-3.9-4-3.9z"/></svg>